<svg width="21" height="20" viewBox="0 0 21 20" fill="none" xmlns="http://www.w3.org/2000/svg">
<path d="M5.47875 19.7283V6.76212H1.17285V19.7283H5.47875ZM3.32664 4.99212C4.82794 4.99212 5.76255 3.99642 5.76255 2.75222C5.73445 1.47952 4.82795 0.511719 3.35525 0.511719C1.88155 0.511719 0.918945 1.47952 0.918945 2.75202C0.918945 3.99632 1.85325 4.99202 3.29845 4.99202L3.32664 4.99212ZM7.86215 19.7283H12.1677V12.4882C12.1677 12.1011 12.1958 11.7131 12.3095 11.4367C12.6207 10.6621 13.3291 9.86032 14.5189 9.86032C16.0766 9.86032 16.7001 11.0492 16.7001 12.7925V19.7283H21.0056V12.2939C21.0056 8.31142 18.8816 6.45812 16.0487 6.45812C13.7261 6.45812 12.7061 7.75742 12.1393 8.64242H12.168V6.76252H7.86235C7.91855 7.97892 7.86215 19.7283 7.86215 19.7283Z" fill="white"/>
</svg>
