<svg width="26" height="22" viewBox="0 0 26 22" fill="none" xmlns="http://www.w3.org/2000/svg">
<path d="M24.9136 3.40104C24.1211 3.74244 23.2879 3.98014 22.4346 4.10834C22.8335 4.03984 23.4205 3.32114 23.6542 3.03024C24.0091 2.59144 24.2797 2.09054 24.452 1.55294C24.452 1.51304 24.4919 1.45594 24.452 1.42744C24.4319 1.41644 24.4094 1.41074 24.3865 1.41074C24.3636 1.41074 24.341 1.41644 24.3209 1.42744C23.3944 1.92964 22.4083 2.31294 21.386 2.56824C21.3504 2.57914 21.3124 2.58014 21.2763 2.57104C21.2401 2.56204 21.2071 2.54334 21.1808 2.51694C21.1013 2.42204 21.0156 2.33254 20.9244 2.24884C20.5074 1.87484 20.0343 1.56884 19.5224 1.34184C18.8315 1.05814 18.0851 0.93524 17.3397 0.98254C16.6165 1.02824 15.9104 1.22244 15.2653 1.55294C14.6301 1.90144 14.0718 2.37484 13.624 2.94474C13.153 3.53124 12.8129 4.21204 12.6267 4.94114C12.4732 5.63464 12.4557 6.35144 12.5754 7.05154C12.5754 7.17134 12.5754 7.18844 12.4728 7.17134C8.40946 6.57244 5.07556 5.12934 2.35146 2.03204C2.23176 1.89514 2.16916 1.89514 2.07226 2.03204C0.886856 3.83454 1.46246 6.68654 2.94416 8.09544C3.14366 8.28364 3.34876 8.46614 3.56536 8.63734C2.88596 8.58904 2.22326 8.40474 1.61636 8.09544C1.50236 8.02124 1.43966 8.06124 1.43396 8.19814C1.41776 8.38784 1.41776 8.57874 1.43396 8.76854C1.55286 9.67804 1.91096 10.5396 2.47176 11.2652C3.03246 11.9908 3.77566 12.5543 4.62536 12.8982C4.83246 12.987 5.04836 13.0539 5.26936 13.0978C4.64046 13.2217 3.99536 13.241 3.36016 13.1548C3.22346 13.1263 3.17216 13.2005 3.22346 13.3317C4.06116 15.6133 5.87916 16.3091 7.21266 16.697C7.39506 16.7255 7.57746 16.7255 7.78256 16.7712C7.78256 16.7712 7.78256 16.7712 7.74836 16.8054C7.35516 17.5241 5.76516 18.0089 5.03566 18.2599C3.70426 18.7386 2.28466 18.9216 0.875456 18.7961C0.653156 18.7619 0.601956 18.7676 0.544956 18.7961C0.487956 18.8246 0.544955 18.8874 0.607555 18.9444C0.892555 19.1326 1.17746 19.2981 1.47386 19.4578C2.35606 19.9394 3.28876 20.322 4.25496 20.5986C9.25856 21.9789 14.8892 20.9636 18.6448 17.2275C21.5969 14.2956 22.6341 10.2515 22.6341 6.20164C22.6341 6.04764 22.8221 5.95644 22.9304 5.87654C23.6773 5.29414 24.3357 4.60624 24.8851 3.83454C24.9803 3.71944 25.0291 3.57304 25.0219 3.42384C25.0219 3.33824 25.0219 3.35534 24.9136 3.40104Z" fill="white"/>
</svg>
